<svg width="1920" height="2000" viewBox="0 0 1920 2000" fill="none" xmlns="http://www.w3.org/2000/svg">
<rect width="1920" height="2000" fill="url(#paint0_linear_7_12)"/>
<path d="M154 213L161.309 245.355L189.355 227.645L171.645 255.691L204 263L171.645 270.309L189.355 298.355L161.309 280.645L154 313L146.691 280.645L118.645 298.355L136.355 270.309L104 263L136.355 255.691L118.645 227.645L146.691 245.355L154 213Z" fill="white"/>
<path d="M1790 537L1797.31 569.355L1825.36 551.645L1807.64 579.691L1840 587L1807.64 594.309L1825.36 622.355L1797.31 604.645L1790 637L1782.69 604.645L1754.64 622.355L1772.36 594.309L1740 587L1772.36 579.691L1754.64 551.645L1782.69 569.355L1790 537Z" fill="white"/>
<path d="M389 696L396.309 728.355L424.355 710.645L406.645 738.691L439 746L406.645 753.309L424.355 781.355L396.309 763.645L389 796L381.691 763.645L353.645 781.355L371.355 753.309L339 746L371.355 738.691L353.645 710.645L381.691 728.355L389 696Z" fill="white"/>
<path d="M1707 1323L1714.31 1355.36L1742.36 1337.64L1724.64 1365.69L1757 1373L1724.64 1380.31L1742.36 1408.36L1714.31 1390.64L1707 1423L1699.69 1390.64L1671.64 1408.36L1689.36 1380.31L1657 1373L1689.36 1365.69L1671.64 1337.64L1699.69 1355.36L1707 1323Z" fill="white"/>
<path d="M204 1423L211.309 1455.36L239.355 1437.64L221.645 1465.69L254 1473L221.645 1480.31L239.355 1508.36L211.309 1490.64L204 1523L196.691 1490.64L168.645 1508.36L186.355 1480.31L154 1473L186.355 1465.69L168.645 1437.64L196.691 1455.36L204 1423Z" fill="white"/>
<path d="M1757 1756L1764.31 1788.36L1792.36 1770.64L1774.64 1798.69L1807 1806L1774.64 1813.31L1792.36 1841.36L1764.31 1823.64L1757 1856L1749.69 1823.64L1721.64 1841.36L1739.36 1813.31L1707 1806L1739.36 1798.69L1721.64 1770.64L1749.69 1788.36L1757 1756Z" fill="white"/>
<path d="M389 1782L396.309 1814.36L424.355 1796.64L406.645 1824.69L439 1832L406.645 1839.31L424.355 1867.36L396.309 1849.64L389 1882L381.691 1849.64L353.645 1867.36L371.355 1839.31L339 1832L371.355 1824.69L353.645 1796.64L381.691 1814.36L389 1782Z" fill="white"/>
<path d="M1625 263L1632.31 295.355L1660.36 277.645L1642.64 305.691L1675 313L1642.64 320.309L1660.36 348.355L1632.31 330.645L1625 363L1617.69 330.645L1589.64 348.355L1607.36 320.309L1575 313L1607.36 305.691L1589.64 277.645L1617.69 295.355L1625 263Z" fill="white"/>
<defs>
<linearGradient id="paint0_linear_7_12" x1="960" y1="0" x2="960" y2="2000" gradientUnits="userSpaceOnUse">
<stop stop-color="#1C2238"/>
<stop offset="1" stop-color="#0E142B"/>
</linearGradient>
</defs>
</svg>
