<svg width="669" height="90" viewBox="0 0 669 90" fill="none" xmlns="http://www.w3.org/2000/svg">
<path d="M0.921875 4.6875C5.10938 4.875 8.35938 4.96875 10.6719 4.96875H14.1406C15.1406 4.96875 16.3906 4.9375 17.8906 4.875C19.1406 4.8125 20.7344 4.78125 22.6719 4.78125C24.6094 4.71875 26.9219 4.625 29.6094 4.5C28.3594 5.375 27.3594 6.21875 26.6094 7.03125C25.8594 7.84375 25.2656 8.5625 24.8281 9.1875C24.3281 9.9375 23.9844 10.625 23.7969 11.25C23.3594 12.875 23.1719 15.0938 23.2344 17.9062C23.3594 20.6562 23.6406 23.6562 24.0781 26.9062C24.5156 30.0938 25.0469 33.3438 25.6719 36.6562C26.2969 39.9688 26.9219 42.9688 27.5469 45.6562C28.2344 48.3438 28.8281 50.5625 29.3281 52.3125C29.8906 54 30.2969 54.8438 30.5469 54.8438C30.7969 54.8438 31.2656 53.9375 31.9531 52.125C32.7031 50.3125 33.5469 48.0312 34.4844 45.2812C35.4219 42.4688 36.3906 39.4375 37.3906 36.1875C38.3906 32.875 39.2969 29.75 40.1094 26.8125C40.9844 23.8125 41.7031 21.25 42.2656 19.125C42.8281 16.9375 43.1094 15.5938 43.1094 15.0938C43.0469 14.4062 42.8281 13.6875 42.4531 12.9375C42.1406 12.25 41.5781 11.4688 40.7656 10.5938C40.0156 9.65625 38.9531 8.59375 37.5781 7.40625C39.5156 7.34375 41.1719 7.28125 42.5469 7.21875C43.9844 7.15625 45.2031 7.125 46.2031 7.125H49.1094H64.1094C62.5469 8.1875 61.2031 9.21875 60.0781 10.2188C59.0156 11.2187 58.1406 12.1562 57.4531 13.0312C56.6406 14.0312 55.9531 14.9688 55.3906 15.8438C54.7656 17.1562 53.7344 20 52.2969 24.375C51.6719 26.25 50.9531 28.5312 50.1406 31.2188C49.3281 33.9062 48.3594 37.125 47.2344 40.875C46.1094 44.625 44.8594 48.9688 43.4844 53.9062C42.1094 58.7812 40.5469 64.3438 38.7969 70.5938L25.7656 72.2812C24.2031 67.4062 22.8281 62.9688 21.6406 58.9688C20.5156 54.9062 19.5156 51.4375 18.6406 48.5625C17.6406 45.1875 16.7969 42.1562 16.1094 39.4688C15.1719 36.2188 14.3594 32.9375 13.6719 29.625C13.0469 26.25 12.4844 23.2188 11.9844 20.5312C11.5469 17.7812 11.1406 15.5 10.7656 13.6875C10.3906 11.875 9.98438 10.8125 9.54688 10.5C9.17188 10.1875 8.60938 9.78125 7.85938 9.28125C7.17188 8.84375 6.29688 8.28125 5.23438 7.59375C4.10938 6.84375 2.67188 5.875 0.921875 4.6875ZM57.3594 30.0938L74.6094 30.2812C73.6094 34.0938 72.8594 37.3438 72.3594 40.0312C71.9219 42.7188 71.6406 44.9688 71.5156 46.7812C71.2656 48.8438 71.2031 50.5938 71.3281 52.0312C71.5156 53.3438 71.8281 54.75 72.2656 56.25C72.6406 57.5 73.2031 58.9375 73.9531 60.5625C74.7031 62.1875 75.7031 63.8125 76.9531 65.4375C76.2031 65.1875 75.3906 65 74.5156 64.875C73.6406 64.75 72.8281 64.6562 72.0781 64.5938C71.2031 64.5312 70.3281 64.5312 69.4531 64.5938C68.5781 64.6562 67.6094 64.75 66.5469 64.875C65.6719 65 64.6094 65.1562 63.3594 65.3438C62.1094 65.5312 60.7969 65.7812 59.4219 66.0938C60.3594 63.2812 61.0781 60.8438 61.5781 58.7812C62.1406 56.7188 62.5469 55 62.7969 53.625C63.0469 52 63.2031 50.6875 63.2656 49.6875C63.2656 48.4375 63.2656 47.0312 63.2656 45.4688C63.2656 43.8438 63.2656 42.2812 63.2656 40.7812C63.2656 39.2812 63.2344 37.9688 63.1719 36.8438C63.1094 35.6562 62.9844 34.9062 62.7969 34.5938L61.8594 33.6562C61.4844 33.3438 60.9219 32.9062 60.1719 32.3438C59.4844 31.7188 58.5469 30.9688 57.3594 30.0938ZM64.0156 15.6562C65.3281 14.9688 66.6406 14.7812 67.9531 15.0938C69.3281 15.4062 70.3906 16 71.1406 16.875C71.8906 17.75 72.1406 18.7812 71.8906 19.9688C71.7031 21.1562 70.7031 22.3125 68.8906 23.4375C67.0781 24.5 65.4844 24.875 64.1094 24.5625C62.7344 24.25 61.7656 23.5938 61.2031 22.5938C60.6406 21.5938 60.5469 20.4375 60.9219 19.125C61.2969 17.75 62.3281 16.5938 64.0156 15.6562ZM79.3906 4.40625C80.0781 4.71875 80.8906 4.9375 81.8281 5.0625C82.8281 5.1875 83.7656 5.25 84.6406 5.25C85.7031 5.25 86.7969 5.21875 87.9219 5.15625C89.0469 5.09375 90.4219 4.96875 92.0469 4.78125C93.3594 4.65625 94.9844 4.5 96.9219 4.3125C98.8594 4.125 101.016 3.875 103.391 3.5625C102.516 4 101.766 4.46875 101.141 4.96875C100.516 5.46875 99.9844 5.96875 99.5469 6.46875C99.0469 7.03125 98.6406 7.59375 98.3281 8.15625C97.8906 8.90625 97.2969 10.2188 96.5469 12.0938C95.8594 13.9062 95.1406 15.9375 94.3906 18.1875C93.7031 20.4375 93.0781 22.7188 92.5156 25.0312C92.0156 27.3438 91.7344 29.3125 91.6719 30.9375C91.6094 32.3125 91.5469 33.875 91.4844 35.625C91.4219 37.125 91.3594 38.9688 91.2969 41.1562C91.2344 43.3438 91.1719 45.8438 91.1094 48.6562C95.6094 45.4062 99.0781 42.8125 101.516 40.875C103.953 38.875 105.734 37.3438 106.859 36.2812C108.172 35.0938 108.953 34.25 109.203 33.75C109.141 33.375 108.984 32.9688 108.734 32.5312C108.422 32.1562 107.984 31.7188 107.422 31.2188C106.859 30.7188 106.016 30.1562 104.891 29.5312C106.516 29.7188 107.922 29.8438 109.109 29.9062C110.359 29.9688 111.422 30.0312 112.297 30.0938C113.297 30.1562 114.172 30.1562 114.922 30.0938C115.734 30.0938 116.734 30.0625 117.922 30C119.984 29.9375 123.172 29.8438 127.484 29.7188C123.297 31.9062 119.984 33.7812 117.547 35.3438C116.172 36.2188 114.953 37.0312 113.891 37.7812C112.828 38.5938 111.734 39.4375 110.609 40.3125C109.609 41.0625 108.453 41.9375 107.141 42.9375C105.891 43.9375 104.641 45 103.391 46.125C105.578 49.6875 107.484 52.625 109.109 54.9375C110.797 57.25 112.203 59.125 113.328 60.5625C114.641 62.25 115.797 63.5938 116.797 64.5938C117.797 65.5312 119.109 66.5938 120.734 67.7812C122.109 68.8438 123.891 70.0938 126.078 71.5312C128.328 72.9062 131.047 74.5 134.234 76.3125C132.609 76 131.047 75.7812 129.547 75.6562C128.047 75.5938 126.766 75.5938 125.703 75.6562C124.391 75.7188 123.203 75.8438 122.141 76.0312C121.016 76.2812 119.766 76.5938 118.391 76.9688C117.203 77.2812 115.797 77.6875 114.172 78.1875C112.609 78.75 110.891 79.4688 109.016 80.3438C110.203 79.4688 111.078 78.625 111.641 77.8125C112.266 77.0625 112.703 76.4375 112.953 75.9375C113.203 75.3125 113.297 74.7812 113.234 74.3438C112.922 73.7188 112.203 72.4375 111.078 70.5C110.016 68.875 108.453 66.5 106.391 63.375C104.328 60.25 101.391 56 97.5781 50.625C97.3906 50.6875 97.0781 50.875 96.6406 51.1875C96.2656 51.5 95.7031 51.9375 94.9531 52.5C94.2031 53 93.2031 53.75 91.9531 54.75L94.4844 71.1562C93.9219 71.4062 93.2969 71.625 92.6094 71.8125C91.9844 72 91.3906 72.1562 90.8281 72.2812C90.1406 72.4688 89.4531 72.5938 88.7656 72.6562C88.0781 72.7188 87.2656 72.8438 86.3281 73.0312C85.5156 73.1562 84.5469 73.3125 83.4219 73.5C82.2969 73.75 81.0156 74.0312 79.5781 74.3438C80.3906 73.7812 81.0469 73.125 81.5469 72.375C82.0469 71.6875 82.4531 71.0312 82.7656 70.4062C83.0781 69.7188 83.3594 69 83.6094 68.25C83.7344 67.625 83.8594 66 83.9844 63.375C84.1719 60.75 84.3281 57.625 84.4531 54C84.5781 50.3125 84.6719 46.375 84.7344 42.1875C84.8594 38 84.9219 34.0625 84.9219 30.375C84.9219 26.625 84.8906 23.375 84.8281 20.625C84.7656 17.8125 84.6406 16 84.4531 15.1875C84.1406 14.1875 83.7656 13.125 83.3281 12C82.9531 11 82.4219 9.875 81.7344 8.625C81.1094 7.3125 80.3281 5.90625 79.3906 4.40625ZM124.109 30.0938L141.359 30.2812C140.359 34.0938 139.609 37.3438 139.109 40.0312C138.672 42.7188 138.391 44.9688 138.266 46.7812C138.016 48.8438 137.953 50.5938 138.078 52.0312C138.266 53.3438 138.578 54.75 139.016 56.25C139.391 57.5 139.953 58.9375 140.703 60.5625C141.453 62.1875 142.453 63.8125 143.703 65.4375C142.953 65.1875 142.141 65 141.266 64.875C140.391 64.75 139.578 64.6562 138.828 64.5938C137.953 64.5312 137.078 64.5312 136.203 64.5938C135.328 64.6562 134.359 64.75 133.297 64.875C132.422 65 131.359 65.1562 130.109 65.3438C128.859 65.5312 127.547 65.7812 126.172 66.0938C127.109 63.2812 127.828 60.8438 128.328 58.7812C128.891 56.7188 129.297 55 129.547 53.625C129.797 52 129.953 50.6875 130.016 49.6875C130.016 48.4375 130.016 47.0312 130.016 45.4688C130.016 43.8438 130.016 42.2812 130.016 40.7812C130.016 39.2812 129.984 37.9688 129.922 36.8438C129.859 35.6562 129.734 34.9062 129.547 34.5938L128.609 33.6562C128.234 33.3438 127.672 32.9062 126.922 32.3438C126.234 31.7188 125.297 30.9688 124.109 30.0938ZM130.766 15.6562C132.078 14.9688 133.391 14.7812 134.703 15.0938C136.078 15.4062 137.141 16 137.891 16.875C138.641 17.75 138.891 18.7812 138.641 19.9688C138.453 21.1562 137.453 22.3125 135.641 23.4375C133.828 24.5 132.234 24.875 130.859 24.5625C129.484 24.25 128.516 23.5938 127.953 22.5938C127.391 21.5938 127.297 20.4375 127.672 19.125C128.047 17.75 129.078 16.5938 130.766 15.6562ZM149.984 61.6875C150.422 59.625 150.734 57.8125 150.922 56.25C151.172 54.625 151.359 53.2812 151.484 52.2188C151.609 50.9688 151.672 49.9062 151.672 49.0312C151.609 47.9688 151.547 46.7188 151.484 45.2812C151.484 43.7812 151.422 42.3125 151.297 40.875C151.234 39.375 151.141 38.0625 151.016 36.9375C150.891 35.75 150.734 34.9062 150.547 34.4062C150.297 33.9062 149.953 33.375 149.516 32.8125C148.641 31.75 147.359 30.7188 145.672 29.7188C147.109 29.4062 148.328 29.1562 149.328 28.9688C150.391 28.7188 151.266 28.5 151.953 28.3125C152.703 28.0625 153.359 27.8438 153.922 27.6562C154.422 27.4688 155.016 27.2812 155.703 27.0938C156.266 26.9688 156.953 26.8125 157.766 26.625C158.578 26.4375 159.516 26.2188 160.578 25.9688L160.297 34.5C162.297 32.125 164.328 30.3438 166.391 29.1562C168.453 27.9688 170.391 27.125 172.203 26.625C174.266 26 176.297 25.6875 178.297 25.6875C180.797 25.8125 183.109 26.2188 185.234 26.9062C187.422 27.5938 189.297 28.4062 190.859 29.3438C192.484 30.2188 193.797 31.1562 194.797 32.1562C195.797 33.1562 196.391 34.0312 196.578 34.7812C197.328 37.2188 197.516 39.4688 197.141 41.5312C196.766 43.5312 196.266 45.5 195.641 47.4375C195.078 49.3125 194.578 51.1875 194.141 53.0625C193.766 54.9375 193.922 56.9688 194.609 59.1562C194.859 59.7188 195.109 60.2812 195.359 60.8438C195.609 61.3438 195.922 61.8438 196.297 62.3438C196.672 62.8438 197.109 63.25 197.609 63.5625C196.922 63.5 196.234 63.4688 195.547 63.4688C194.859 63.4062 194.234 63.3438 193.672 63.2812C192.984 63.2188 192.359 63.1562 191.797 63.0938C191.172 63.0312 190.328 63 189.266 63C187.453 63 184.641 63.0938 180.828 63.2812C181.391 61.9688 181.828 60.875 182.141 60C182.516 59.0625 182.828 58.3125 183.078 57.75C183.328 57.0625 183.516 56.5312 183.641 56.1562C184.391 54.3438 184.828 52.2812 184.953 49.9688C185.141 47.6562 184.984 45.3125 184.484 42.9375C184.297 42.125 183.984 41.1562 183.547 40.0312C183.109 38.9062 182.516 37.8125 181.766 36.75C181.078 35.6875 180.234 34.7812 179.234 34.0312C178.297 33.2812 177.203 32.8438 175.953 32.7188C174.703 32.5938 173.297 32.9062 171.734 33.6562C170.234 34.4062 168.609 35.7812 166.859 37.7812C165.547 39.4688 164.516 41.5312 163.766 43.9688C163.078 46.0312 162.609 48.625 162.359 51.75C162.109 54.8125 162.484 58.4062 163.484 62.5312C162.609 62.4062 161.797 62.3438 161.047 62.3438C160.297 62.2812 159.672 62.2188 159.172 62.1562C158.547 62.0938 157.984 62.0312 157.484 61.9688C156.922 61.9688 156.297 61.9375 155.609 61.875C154.984 61.875 154.203 61.875 153.266 61.875C152.328 61.8125 151.234 61.75 149.984 61.6875ZM247.578 32.25C247.391 31 247.234 29.9688 247.109 29.1562C246.984 28.2812 246.859 27.5938 246.734 27.0938C246.609 26.4688 246.516 26 246.453 25.6875C246.328 25.375 246.172 25.0312 245.984 24.6562C245.859 24.3438 245.641 23.9688 245.328 23.5312C245.078 23.0938 244.766 22.5938 244.391 22.0312C245.203 22.2812 246.016 22.4375 246.828 22.5C247.703 22.5625 248.516 22.625 249.266 22.6875C250.078 22.75 250.922 22.75 251.797 22.6875C252.672 22.6875 253.672 22.6562 254.797 22.5938C255.797 22.5312 256.984 22.5 258.359 22.5C259.797 22.4375 261.422 22.3438 263.234 22.2188C262.172 22.4688 261.266 22.9062 260.516 23.5312C259.828 24.0938 259.234 24.7188 258.734 25.4062C258.172 26.1562 257.703 26.9688 257.328 27.8438C257.016 28.6562 256.828 30.2188 256.766 32.5312C256.703 34.7812 256.703 37.4688 256.766 40.5938C256.828 43.6562 256.891 46.9688 256.953 50.5312C257.078 54.0938 257.141 57.5 257.141 60.75C257.203 64 257.203 66.9688 257.141 69.6562C257.078 72.2812 256.922 74.2188 256.672 75.4688C255.797 79.4062 254.172 82.5938 251.797 85.0312C249.422 87.5312 246.297 88.875 242.422 89.0625C237.734 89.25 234.016 88.8125 231.266 87.75C228.578 86.6875 226.484 85.375 224.984 83.8125C223.484 82.3125 222.359 80.7812 221.609 79.2188C220.859 77.6562 220.078 76.4688 219.266 75.6562C218.516 74.9688 217.766 74.3125 217.016 73.6875C216.328 73.1875 215.609 72.6875 214.859 72.1875C214.172 71.6875 213.484 71.375 212.797 71.25C214.609 71.3125 216.234 71.3438 217.672 71.3438C219.109 71.3438 220.328 71.3438 221.328 71.3438C222.453 71.3438 223.453 71.3125 224.328 71.25H227.328H235.859C234.609 71.625 233.672 72.0312 233.047 72.4688C232.422 72.9688 231.984 73.4688 231.734 73.9688C231.484 74.5312 231.359 75.0938 231.359 75.6562C231.609 77.1562 232.422 78.25 233.797 78.9375C235.172 79.625 237.047 80.0312 239.422 80.1562C241.734 80.2812 243.328 80.2188 244.203 79.9688C245.078 79.7812 245.766 79.4062 246.266 78.8438C247.266 77.3438 248.109 75.4062 248.797 73.0312C249.297 71.0312 249.641 68.4375 249.828 65.25C250.078 62 249.797 58.0312 248.984 53.3438C246.984 56.0938 244.672 58.1562 242.047 59.5312C239.422 60.9062 236.922 61.9062 234.547 62.5312C231.734 63.2188 228.891 63.5625 226.016 63.5625C218.453 63.25 212.797 61.5 209.047 58.3125C205.297 55.125 203.578 50.8438 203.891 45.4688C204.078 42.7812 204.891 40.0938 206.328 37.4062C207.828 34.7188 209.766 32.3125 212.141 30.1875C214.578 28.0625 217.359 26.375 220.484 25.125C223.609 23.875 226.859 23.3438 230.234 23.5312C232.797 23.7812 235.203 24.25 237.453 24.9375C239.391 25.5625 241.297 26.4375 243.172 27.5625C245.109 28.6875 246.578 30.25 247.578 32.25ZM217.766 41.625C217.391 44.0625 217.547 46.3438 218.234 48.4688C218.984 50.5938 220.016 52.4375 221.328 54C222.641 55.5 224.109 56.6875 225.734 57.5625C227.359 58.375 228.891 58.75 230.328 58.6875C233.328 58.625 235.922 57.2812 238.109 54.6562C240.297 51.9688 241.609 47.9688 242.047 42.6562C242.234 40.0312 241.891 37.7812 241.016 35.9062C240.203 33.9688 239.172 32.4062 237.922 31.2188C236.672 30.0312 235.359 29.1875 233.984 28.6875C232.609 28.1875 231.516 27.9688 230.703 28.0312C229.578 28.1562 228.328 28.5 226.953 29.0625C225.641 29.5625 224.359 30.3438 223.109 31.4062C221.859 32.4062 220.734 33.75 219.734 35.4375C218.797 37.125 218.141 39.1875 217.766 41.625ZM296.141 13.875C298.328 13.1875 300.109 12.625 301.484 12.1875C302.859 11.6875 303.984 11.2813 304.859 10.9688C305.859 10.5938 306.609 10.25 307.109 9.9375L309.359 8.8125C310.234 8.375 311.359 7.8125 312.734 7.125C314.109 6.375 315.891 5.4375 318.078 4.3125C317.578 6.6875 317.203 8.9375 316.953 11.0625C316.766 13.125 316.609 14.9688 316.484 16.5938C316.297 18.4688 316.203 20.1875 316.203 21.75C316.141 23.0625 316.047 24.8125 315.922 27C315.859 29.1875 315.766 31.5625 315.641 34.125C315.516 36.6875 315.391 39.3125 315.266 42C315.141 44.6875 315.047 47.2188 314.984 49.5938C314.984 51.9062 315.016 53.9062 315.078 55.5938C315.203 57.2812 315.422 58.4375 315.734 59.0625C316.047 59.8125 316.453 60.5312 316.953 61.2188C317.391 61.8438 317.891 62.5625 318.453 63.375C319.078 64.125 319.828 64.875 320.703 65.625C319.266 65.9375 317.922 66.2188 316.672 66.4688C315.422 66.6562 314.328 66.8125 313.391 66.9375C312.266 67.125 311.266 67.2812 310.391 67.4062C309.453 67.4688 308.172 67.625 306.547 67.875C305.172 68.0625 303.422 68.3125 301.297 68.625C299.172 68.875 296.547 69.1562 293.422 69.4688C295.047 68.4688 296.328 67.5 297.266 66.5625C298.266 65.625 299.016 64.8125 299.516 64.125C300.078 63.3125 300.422 62.5312 300.547 61.7812C300.609 61.2812 300.703 59.9375 300.828 57.75C301.016 55.5 301.172 52.875 301.297 49.875C301.484 46.8125 301.641 43.5625 301.766 40.125C301.953 36.625 302.078 33.375 302.141 30.375C302.203 27.375 302.234 24.8125 302.234 22.6875C302.234 20.5625 302.141 19.2812 301.953 18.8438C301.703 18.4062 301.328 17.9062 300.828 17.3438C300.391 16.8438 299.797 16.3125 299.047 15.75C298.359 15.1875 297.391 14.5625 296.141 13.875ZM357.172 4.03125C358.984 4.34375 360.578 4.5625 361.953 4.6875C363.391 4.8125 364.578 4.90625 365.516 4.96875C366.641 5.03125 367.609 5.0625 368.422 5.0625C369.234 5.0625 370.391 5 371.891 4.875C373.141 4.75 374.766 4.59375 376.766 4.40625C378.828 4.21875 381.359 3.90625 384.359 3.46875C383.484 3.71875 382.672 4.4375 381.922 5.625C381.234 6.75 380.609 7.96875 380.047 9.28125C379.359 10.8437 378.766 12.5625 378.266 14.4375C377.828 16.125 377.266 18.4375 376.578 21.375C375.953 24.3125 375.328 27.5 374.703 30.9375C374.141 34.375 373.703 37.875 373.391 41.4375C373.078 44.9375 373.016 48.1562 373.203 51.0938C373.453 54.0312 374.047 56.4688 374.984 58.4062C375.922 60.2812 377.359 61.2812 379.297 61.4062C382.234 61.6562 384.672 61.6875 386.609 61.5C388.609 61.25 390.234 60.9062 391.484 60.4688C392.734 60.0312 393.703 59.5312 394.391 58.9688C395.078 58.3438 395.609 57.75 395.984 57.1875C396.984 55.75 398.016 53.9062 399.078 51.6562C400.141 49.4062 401.078 47.25 401.891 45.1875C402.766 43.125 403.484 41.375 404.047 39.9375C404.609 38.5 404.891 37.8125 404.891 37.875C404.891 38 404.859 38.7188 404.797 40.0312C404.797 41.2812 404.766 42.8125 404.703 44.625C404.703 46.375 404.672 48.2188 404.609 50.1562C404.609 52.0938 404.578 53.75 404.516 55.125C404.453 56.25 404.391 57.5 404.328 58.875C404.266 60.0625 404.203 61.4688 404.141 63.0938C404.141 64.7188 404.078 66.5 403.953 68.4375C401.328 68.25 398.828 68.125 396.453 68.0625C394.078 68 391.984 67.9688 390.172 67.9688C388.047 67.9688 386.078 68 384.266 68.0625C382.328 68.125 380.078 68.2188 377.516 68.3438C375.328 68.4688 372.609 68.625 369.359 68.8125C366.109 68.9375 362.359 69.125 358.109 69.375C358.609 68.5 359.016 67.6875 359.328 66.9375C359.703 66.1875 359.984 65.5625 360.172 65.0625C360.422 64.4375 360.578 63.9062 360.641 63.4688C361.016 61.4688 361.328 58.9375 361.578 55.875C361.828 52.75 362.016 49.4375 362.141 45.9375C362.328 42.4375 362.422 38.875 362.422 35.25C362.484 31.5625 362.484 28.1562 362.422 25.0312C362.359 21.9062 362.234 19.1875 362.047 16.875C361.922 14.5625 361.734 12.9688 361.484 12.0938C361.172 11.0938 360.797 10.0937 360.359 9.09375C359.984 8.21875 359.516 7.34375 358.953 6.46875C358.453 5.53125 357.859 4.71875 357.172 4.03125ZM417.172 34.0312C417.484 33.6562 417.672 32.9688 417.734 31.9688C417.859 30.9062 418.109 29.7188 418.484 28.4062C418.922 27.0938 419.641 25.7188 420.641 24.2812C421.641 22.8438 423.266 21.5 425.516 20.25C427.703 19 429.828 18.25 431.891 18C433.953 17.75 435.922 17.8438 437.797 18.2812C439.672 18.7188 441.422 19.4062 443.047 20.3438C444.734 21.2812 446.266 22.3125 447.641 23.4375C448.578 24.1875 449.328 25.2812 449.891 26.7188C450.453 28.0938 450.891 29.6562 451.203 31.4062C451.516 33.1562 451.734 35 451.859 36.9375C452.047 38.8125 452.172 40.6562 452.234 42.4688C452.297 44.2188 452.328 45.8438 452.328 47.3438C452.391 48.7812 452.516 49.9688 452.703 50.9062C452.953 52.2812 453.391 53.4688 454.016 54.4688C454.641 55.4062 455.328 56.2188 456.078 56.9062C456.828 57.5312 457.578 58.0312 458.328 58.4062C459.078 58.7812 459.734 59.0625 460.297 59.25C460.672 59.4375 461.016 59.5625 461.328 59.625C461.953 59.875 462.391 59.875 462.641 59.625C462.266 60.5 461.922 61.25 461.609 61.875C461.297 62.5 461.047 63.0312 460.859 63.4688C460.609 63.9688 460.391 64.375 460.203 64.6875C460.016 65.0625 459.797 65.4062 459.547 65.7188C459.359 66.0312 459.109 66.375 458.797 66.75C458.484 67.125 458.172 67.5312 457.859 67.9688C457.047 67.6562 456.266 67.2812 455.516 66.8438C454.828 66.4062 454.203 66 453.641 65.625C452.953 65.1875 452.328 64.75 451.766 64.3125C451.203 63.875 450.672 63.375 450.172 62.8125C449.734 62.3125 449.266 61.7812 448.766 61.2188C448.328 60.6562 447.953 60.0312 447.641 59.3438C447.266 60.1562 446.359 61.3125 444.922 62.8125C443.547 64.3125 441.734 65.6875 439.484 66.9375C437.234 68.125 434.609 68.9688 431.609 69.4688C428.672 69.9688 425.422 69.625 421.859 68.4375C420.297 67.9375 418.828 67.2188 417.453 66.2812C416.078 65.2812 414.891 64.0938 413.891 62.7188C412.953 61.3438 412.266 59.7812 411.828 58.0312C411.453 56.2188 411.484 54.2188 411.922 52.0312C412.359 49.8438 413.141 48 414.266 46.5C415.391 45 416.734 43.7812 418.297 42.8438C419.859 41.9062 421.609 41.1875 423.547 40.6875C425.484 40.1875 427.484 39.8438 429.547 39.6562C431.172 39.5938 432.797 39.6875 434.422 39.9375C435.797 40.1875 437.234 40.6562 438.734 41.3438C440.234 41.9688 441.516 42.9375 442.578 44.25C442.516 40.9375 442.391 38.3125 442.203 36.375C442.078 34.375 441.953 32.8438 441.828 31.7812C441.578 30.5312 441.359 29.6562 441.172 29.1562C440.859 28.7188 440.516 28.2188 440.141 27.6562C439.828 27.0938 439.422 26.5938 438.922 26.1562C438.422 25.6562 437.797 25.25 437.047 24.9375C436.297 24.625 435.422 24.5 434.422 24.5625C433.359 24.625 432.516 24.9062 431.891 25.4062C431.266 25.9062 430.766 26.5 430.391 27.1875C430.078 27.8125 429.891 28.5 429.828 29.25C429.766 30 429.797 30.6562 429.922 31.2188C430.047 31.5938 430.234 32 430.484 32.4375C430.734 32.8125 431.078 33.2188 431.516 33.6562C431.953 34.0938 432.547 34.4688 433.297 34.7812C431.859 34.9688 430.578 35.125 429.453 35.25C428.328 35.3125 427.359 35.4062 426.547 35.5312C425.609 35.6562 424.797 35.75 424.109 35.8125C423.422 35.875 422.609 36 421.672 36.1875C420.859 36.3125 419.859 36.4688 418.672 36.6562C417.484 36.8438 416.109 37.0938 414.547 37.4062C414.922 36.9688 415.266 36.5625 415.578 36.1875C415.891 35.75 416.172 35.375 416.422 35.0625C416.672 34.6875 416.922 34.3438 417.172 34.0312ZM431.234 45.1875C430.109 45.25 428.984 45.5312 427.859 46.0312C426.734 46.4688 425.734 47.125 424.859 48C423.984 48.8125 423.234 49.7812 422.609 50.9062C422.047 51.9688 421.766 53.1562 421.766 54.4688C421.766 55.7812 422.078 56.9375 422.703 57.9375C423.391 58.875 424.266 59.6562 425.328 60.2812C426.453 60.9062 427.641 61.2812 428.891 61.4062C430.203 61.5312 431.484 61.4062 432.734 61.0312C433.922 60.5938 435.047 59.9062 436.109 58.9688C437.172 57.9688 438.078 56.9062 438.828 55.7812C439.578 54.5938 440.109 53.4375 440.422 52.3125C440.734 51.125 440.766 50.1562 440.516 49.4062C440.016 47.7812 438.891 46.6562 437.141 46.0312C435.391 45.3438 433.422 45.0625 431.234 45.1875ZM462.172 28.875C463.797 29.1875 465.203 29.4375 466.391 29.625C467.641 29.75 468.703 29.875 469.578 30C470.578 30.125 471.453 30.2188 472.203 30.2812C472.953 30.3438 473.828 30.4062 474.828 30.4688C476.516 30.5312 478.891 30.5312 481.953 30.4688C480.141 30.3438 478.703 30.8125 477.641 31.875C476.641 32.875 475.891 34.0312 475.391 35.3438C474.766 36.9062 474.422 38.7188 474.359 40.7812C474.234 43.5312 474.297 46.0312 474.547 48.2812C474.859 50.4688 475.391 52.3438 476.141 53.9062C476.953 55.4062 478.016 56.5312 479.328 57.2812C480.641 57.9688 482.328 58.1562 484.391 57.8438C486.453 57.5312 488.016 56.8125 489.078 55.6875C490.203 54.5 491.016 53.0625 491.516 51.375C492.016 49.625 492.297 47.6562 492.359 45.4688C492.484 43.2812 492.578 41 492.641 38.625C492.641 36.25 492.609 34.5625 492.547 33.5625C492.547 32.5 492.516 31.8125 492.453 31.5C492.391 31.1875 492.297 31.0625 492.172 31.125C492.047 31.125 491.891 30.9688 491.703 30.6562C491.578 30.4062 491.391 30.1562 491.141 29.9062C490.953 29.6562 490.703 29.375 490.391 29.0625C490.078 28.6875 489.734 28.3125 489.359 27.9375C490.984 28 492.422 28.0625 493.672 28.125C494.984 28.125 496.078 28.1562 496.953 28.2188C497.953 28.2812 498.828 28.3438 499.578 28.4062C500.266 28.4688 501.172 28.5625 502.297 28.6875C503.234 28.8125 504.453 28.9375 505.953 29.0625C507.453 29.1875 509.234 29.375 511.297 29.625C509.859 29.9375 508.703 30.4062 507.828 31.0312C506.953 31.6562 506.266 32.2812 505.766 32.9062C505.203 33.5938 504.797 34.3438 504.547 35.1562C504.359 36.2188 504.359 37.8438 504.547 40.0312C504.672 41.9688 504.984 44.625 505.484 48C505.984 51.375 506.766 55.8125 507.828 61.3125L500.422 65.7188L498.922 53.25C497.109 56.3125 495.172 58.6875 493.109 60.375C491.109 62 489.234 63.1875 487.484 63.9375C485.422 64.8125 483.422 65.3125 481.484 65.4375C478.922 65.4375 476.703 65.2812 474.828 64.9688C473.016 64.5938 471.453 64.125 470.141 63.5625C468.828 63 467.766 62.375 466.953 61.6875C466.203 60.9375 465.641 60.1875 465.266 59.4375C464.391 57.875 463.922 55.875 463.859 53.4375C463.797 50.9375 463.891 48.4688 464.141 46.0312C464.391 43.5312 464.672 41.25 464.984 39.1875C465.297 37.125 465.391 35.7188 465.266 34.9688C465.141 34.4062 464.953 33.7812 464.703 33.0938C464.453 32.5312 464.141 31.9062 463.766 31.2188C463.391 30.4688 462.859 29.6875 462.172 28.875ZM515.609 61.6875C516.047 59.625 516.359 57.8125 516.547 56.25C516.797 54.625 516.984 53.2812 517.109 52.2188C517.234 50.9688 517.297 49.9062 517.297 49.0312C517.234 47.9688 517.172 46.7188 517.109 45.2812C517.109 43.7812 517.047 42.3125 516.922 40.875C516.859 39.375 516.766 38.0625 516.641 36.9375C516.516 35.75 516.359 34.9062 516.172 34.4062C515.922 33.9062 515.578 33.375 515.141 32.8125C514.266 31.75 512.984 30.7188 511.297 29.7188C512.734 29.4062 513.953 29.1562 514.953 28.9688C516.016 28.7188 516.891 28.5 517.578 28.3125C518.328 28.0625 518.984 27.8438 519.547 27.6562C520.047 27.4688 520.641 27.2812 521.328 27.0938C521.891 26.9688 522.578 26.8125 523.391 26.625C524.203 26.4375 525.141 26.2188 526.203 25.9688L525.922 34.5C527.922 32.125 529.953 30.3438 532.016 29.1562C534.078 27.9688 536.016 27.125 537.828 26.625C539.891 26 541.922 25.6875 543.922 25.6875C546.422 25.8125 548.734 26.2188 550.859 26.9062C553.047 27.5938 554.922 28.4062 556.484 29.3438C558.109 30.2188 559.422 31.1562 560.422 32.1562C561.422 33.1562 562.016 34.0312 562.203 34.7812C562.953 37.2188 563.141 39.4688 562.766 41.5312C562.391 43.5312 561.891 45.5 561.266 47.4375C560.703 49.3125 560.203 51.1875 559.766 53.0625C559.391 54.9375 559.547 56.9688 560.234 59.1562C560.484 59.7188 560.734 60.2812 560.984 60.8438C561.234 61.3438 561.547 61.8438 561.922 62.3438C562.297 62.8438 562.734 63.25 563.234 63.5625C562.547 63.5 561.859 63.4688 561.172 63.4688C560.484 63.4062 559.859 63.3438 559.297 63.2812C558.609 63.2188 557.984 63.1562 557.422 63.0938C556.797 63.0312 555.953 63 554.891 63C553.078 63 550.266 63.0938 546.453 63.2812C547.016 61.9688 547.453 60.875 547.766 60C548.141 59.0625 548.453 58.3125 548.703 57.75C548.953 57.0625 549.141 56.5312 549.266 56.1562C550.016 54.3438 550.453 52.2812 550.578 49.9688C550.766 47.6562 550.609 45.3125 550.109 42.9375C549.922 42.125 549.609 41.1562 549.172 40.0312C548.734 38.9062 548.141 37.8125 547.391 36.75C546.703 35.6875 545.859 34.7812 544.859 34.0312C543.922 33.2812 542.828 32.8438 541.578 32.7188C540.328 32.5938 538.922 32.9062 537.359 33.6562C535.859 34.4062 534.234 35.7812 532.484 37.7812C531.172 39.4688 530.141 41.5312 529.391 43.9688C528.703 46.0312 528.234 48.625 527.984 51.75C527.734 54.8125 528.109 58.4062 529.109 62.5312C528.234 62.4062 527.422 62.3438 526.672 62.3438C525.922 62.2812 525.297 62.2188 524.797 62.1562C524.172 62.0938 523.609 62.0312 523.109 61.9688C522.547 61.9688 521.922 61.9375 521.234 61.875C520.609 61.875 519.828 61.875 518.891 61.875C517.953 61.8125 516.859 61.75 515.609 61.6875ZM621.359 38.7188C620.609 38.5938 619.672 38.5 618.547 38.4375C617.484 38.375 616.453 38.3438 615.453 38.3438C614.328 38.3438 613.141 38.375 611.891 38.4375C610.578 38.5 609.266 38.5625 607.953 38.625C606.828 38.6875 605.547 38.7812 604.109 38.9062C602.734 38.9688 601.391 39.0625 600.078 39.1875C600.578 38.9375 601.016 38.5938 601.391 38.1562C601.828 37.7188 602.203 37.2812 602.516 36.8438C602.828 36.3438 603.109 35.8125 603.359 35.25C603.672 34.3125 603.641 33.1875 603.266 31.875C602.891 30.5 602.203 29.25 601.203 28.125C600.266 27 599.047 26.125 597.547 25.5C596.109 24.8125 594.516 24.6562 592.766 25.0312C590.891 25.4688 589.203 26.125 587.703 27C586.266 27.875 585.047 29.0938 584.047 30.6562C583.109 32.1562 582.422 34.0312 581.984 36.2812C581.609 38.4688 581.516 41.0938 581.703 44.1562C581.953 47.9688 582.578 51 583.578 53.25C584.578 55.5 585.797 57.1875 587.234 58.3125C588.672 59.4375 590.234 60.125 591.922 60.375C593.672 60.5625 595.391 60.5625 597.078 60.375C598.266 60.125 599.359 59.5938 600.359 58.7812C601.172 58.0938 601.922 57.0938 602.609 55.7812C603.297 54.4688 603.609 52.6562 603.547 50.3438L614.984 49.875C613.672 53.5625 612.078 56.5 610.203 58.6875C608.328 60.8125 606.516 62.4688 604.766 63.6562C602.703 65.0312 600.641 65.9688 598.578 66.4688C596.016 66.9062 593.734 67.0938 591.734 67.0312C589.734 66.9062 587.922 66.5938 586.297 66.0938C584.672 65.5938 583.172 64.9688 581.797 64.2188C580.422 63.4688 579.109 62.6562 577.859 61.7812C577.047 61.2188 576.141 60.2812 575.141 58.9688C574.141 57.6562 573.203 56.0938 572.328 54.2812C571.453 52.4062 570.734 50.3438 570.172 48.0938C569.609 45.8438 569.391 43.5312 569.516 41.1562C569.641 38.7188 570.203 36.2812 571.203 33.8438C572.203 31.4062 573.797 29.0625 575.984 26.8125C579.297 23.4375 582.828 21.25 586.578 20.25C590.391 19.1875 593.984 18.9062 597.359 19.4062C600.734 19.8438 603.734 20.8125 606.359 22.3125C608.984 23.8125 610.828 25.4375 611.891 27.1875C612.953 28.9375 613.734 30.2812 614.234 31.2188C614.797 32.0938 615.203 32.7812 615.453 33.2812C615.766 33.7188 616.016 34.0625 616.203 34.3125C616.453 34.5 616.797 34.7812 617.234 35.1562C617.547 35.4688 617.922 35.8125 618.359 36.1875C618.734 36.5 619.172 36.875 619.672 37.3125C620.172 37.75 620.734 38.2188 621.359 38.7188ZM619.484 0.9375C620.922 1.1875 622.234 1.375 623.422 1.5C624.609 1.5625 625.609 1.625 626.422 1.6875C627.359 1.75 628.172 1.78125 628.859 1.78125C629.797 1.71875 630.891 1.625 632.141 1.5C633.203 1.375 634.484 1.21875 635.984 1.03125C637.547 0.84375 639.328 0.59375 641.328 0.28125C640.391 0.78125 639.609 1.28125 638.984 1.78125C638.359 2.21875 637.859 2.6875 637.484 3.1875C637.047 3.75 636.703 4.28125 636.453 4.78125C636.141 5.59375 635.797 7.28125 635.422 9.84375C635.047 12.0312 634.578 15.2812 634.016 19.5938C633.516 23.9062 632.859 29.75 632.047 37.125C634.297 34.875 636.422 33.1875 638.422 32.0625C640.484 30.875 642.297 30.0312 643.859 29.5312C645.672 28.9688 647.359 28.6875 648.922 28.6875C650.859 28.875 652.828 29.5 654.828 30.5625C656.891 31.5625 658.797 32.75 660.547 34.125C662.359 35.5 663.922 36.9688 665.234 38.5312C666.609 40.0938 667.578 41.4688 668.141 42.6562C668.516 43.4688 668.703 44.5312 668.703 45.8438C668.703 47.0938 668.578 48.4688 668.328 49.9688C668.078 51.4688 667.734 53 667.297 54.5625C666.859 56.125 666.422 57.5938 665.984 58.9688C665.609 60.3438 665.266 61.5625 664.953 62.625C664.641 63.625 664.453 64.3438 664.391 64.7812C664.266 65.7188 664.328 66.625 664.578 67.5C664.766 68.25 665.141 69.0625 665.703 69.9375C666.266 70.75 667.109 71.4375 668.234 72C667.359 71.875 666.422 71.7812 665.422 71.7188C664.484 71.5938 663.578 71.5 662.703 71.4375C661.703 71.375 660.703 71.3438 659.703 71.3438H656.328C655.266 71.3438 654.047 71.375 652.672 71.4375C651.297 71.4375 649.797 71.4688 648.172 71.5312C649.047 71.2188 649.797 70.8125 650.422 70.3125C651.047 69.75 651.578 69.2188 652.016 68.7188C652.516 68.1562 652.953 67.5625 653.328 66.9375C653.578 66.4375 653.891 65.5 654.266 64.125C654.641 62.6875 654.984 61.0625 655.297 59.25C655.609 57.375 655.828 55.4062 655.953 53.3438C656.141 51.2812 656.172 49.3125 656.047 47.4375C655.984 45.5 655.703 43.7812 655.203 42.2812C654.766 40.7812 654.078 39.6875 653.141 39C650.328 36.875 647.766 35.8438 645.453 35.9062C643.203 35.9062 641.047 36.8125 638.984 38.625C638.234 39.3125 637.516 40 636.828 40.6875C636.203 41.3125 635.516 42.0625 634.766 42.9375C634.016 43.75 633.328 44.5938 632.703 45.4688C632.703 46.4062 632.734 47.4375 632.797 48.5625C632.859 49.6875 632.922 50.7812 632.984 51.8438C633.047 53.0312 633.141 54.2188 633.266 55.4062C633.391 57.2188 633.578 59 633.828 60.75C634.016 62.25 634.266 63.9062 634.578 65.7188C634.891 67.4688 635.297 69.0625 635.797 70.5C634.984 70.375 634.141 70.3438 633.266 70.4062C632.391 70.4062 631.547 70.4062 630.734 70.4062C629.797 70.4688 628.891 70.5 628.016 70.5C627.203 70.5625 626.359 70.6562 625.484 70.7812C624.734 70.9062 623.922 71.0312 623.047 71.1562C622.172 71.2188 621.328 71.3438 620.516 71.5312C621.266 70.0938 621.891 68.6875 622.391 67.3125C622.891 65.875 623.297 64.625 623.609 63.5625C623.984 62.3125 624.297 61.0938 624.547 59.9062C624.734 58.9688 624.859 57.1875 624.922 54.5625C625.047 51.875 625.141 48.8125 625.203 45.375C625.266 41.875 625.297 38.1875 625.297 34.3125C625.297 30.4375 625.266 26.75 625.203 23.25C625.141 19.75 625.016 16.6875 624.828 14.0625C624.703 11.4375 624.547 9.625 624.359 8.625C624.109 7.625 623.766 6.625 623.328 5.625C622.953 4.75 622.453 3.90625 621.828 3.09375C621.203 2.21875 620.422 1.5 619.484 0.9375Z" fill="white"/>
</svg>
